<svg width="52" height="60" viewBox="0 0 52 60" fill="none" xmlns="http://www.w3.org/2000/svg">
<path opacity="0.2" d="M28 2V10C28 10.5304 27.7893 11.0391 27.4142 11.4142C27.0391 11.7893 26.5304 12 26 12C25.4696 12 24.9609 11.7893 24.5858 11.4142C24.2107 11.0391 24 10.5304 24 10V2C24 1.46957 24.2107 0.960859 24.5858 0.585786C24.9609 0.210714 25.4696 0 26 0C26.5304 0 27.0391 0.210714 27.4142 0.585786C27.7893 0.960859 28 1.46957 28 2ZM38 12C37.4696 12 36.9609 12.2107 36.5858 12.5858C36.2107 12.9609 36 13.4696 36 14V22C36 22.5304 36.2107 23.0391 36.5858 23.4142C36.9609 23.7893 37.4696 24 38 24C38.5304 24 39.0391 23.7893 39.4142 23.4142C39.7893 23.0391 40 22.5304 40 22V14C40 13.4696 39.7893 12.9609 39.4142 12.5858C39.0391 12.2107 38.5304 12 38 12ZM26 48C25.4696 48 24.9609 48.2107 24.5858 48.5858C24.2107 48.9609 24 49.4696 24 50V58C24 58.5304 24.2107 59.0391 24.5858 59.4142C24.9609 59.7893 25.4696 60 26 60C26.5304 60 27.0391 59.7893 27.4142 59.4142C27.7893 59.0391 28 58.5304 28 58V50C28 49.4696 27.7893 48.9609 27.4142 48.5858C27.0391 48.2107 26.5304 48 26 48ZM26 18C25.4696 18 24.9609 18.2107 24.5858 18.5858C24.2107 18.9609 24 19.4696 24 20V40C24 40.5304 24.2107 41.0391 24.5858 41.4142C24.9609 41.7893 25.4696 42 26 42C26.5304 42 27.0391 41.7893 27.4142 41.4142C27.7893 41.0391 28 40.5304 28 40V20C28 19.4696 27.7893 18.9609 27.4142 18.5858C27.0391 18.2107 26.5304 18 26 18ZM14 12C13.4696 12 12.9609 12.2107 12.5858 12.5858C12.2107 12.9609 12 13.4696 12 14V28C12 28.5304 12.2107 29.0391 12.5858 29.4142C12.9609 29.7893 13.4696 30 14 30C14.5304 30 15.0391 29.7893 15.4142 29.4142C15.7893 29.0391 16 28.5304 16 28V14C16 13.4696 15.7893 12.9609 15.4142 12.5858C15.0391 12.2107 14.5304 12 14 12ZM38 30C37.4696 30 36.9609 30.2107 36.5858 30.5858C36.2107 30.9609 36 31.4696 36 32V46C36 46.5304 36.2107 47.0391 36.5858 47.4142C36.9609 47.7893 37.4696 48 38 48C38.5304 48 39.0391 47.7893 39.4142 47.4142C39.7893 47.0391 40 46.5304 40 46V32C40 31.4696 39.7893 30.9609 39.4142 30.5858C39.0391 30.2107 38.5304 30 38 30ZM2 24C1.46957 24 0.96086 24.2107 0.58579 24.5858C0.210714 24.9609 0 25.4696 0 26V34C0 34.5304 0.210714 35.0391 0.58579 35.4142C0.96086 35.7893 1.46957 36 2 36C2.53043 36 3.03914 35.7893 3.41421 35.4142C3.78929 35.0391 4 34.5304 4 34V26C4 25.4696 3.78929 24.9609 3.41421 24.5858C3.03914 24.2107 2.53043 24 2 24ZM14 36C13.4696 36 12.9609 36.2107 12.5858 36.5858C12.2107 36.9609 12 37.4696 12 38V46C12 46.5304 12.2107 47.0391 12.5858 47.4142C12.9609 47.7893 13.4696 48 14 48C14.5304 48 15.0391 47.7893 15.4142 47.4142C15.7893 47.0391 16 46.5304 16 46V38C16 37.4696 15.7893 36.9609 15.4142 36.5858C15.0391 36.2107 14.5304 36 14 36ZM50 24C49.4696 24 48.9609 24.2107 48.5858 24.5858C48.2107 24.9609 48 25.4696 48 26V34C48 34.5304 48.2107 35.0391 48.5858 35.4142C48.9609 35.7893 49.4696 36 50 36C50.5304 36 51.0391 35.7893 51.4142 35.4142C51.7893 35.0391 52 34.5304 52 34V26C52 25.4696 51.7893 24.9609 51.4142 24.5858C51.0391 24.2107 50.5304 24 50 24Z" fill="white"/>
</svg>
